<?xml version="1.0" encoding="UTF-8"?>
<svg xmlns="http://www.w3.org/2000/svg" xmlns:xlink="http://www.w3.org/1999/xlink" version="1.1" viewBox="0 0 513.52 57.42">
  <!-- Generator: Adobe Illustrator 30.6.0, SVG Export Plug-In . SVG Version: 2.1.4 Build 109)  -->
  <defs>
    <style>
      .st0 {
        fill: url(#linear-gradient2);
      }

      .st1 {
        fill: url(#linear-gradient1);
      }

      .st2 {
        fill: url(#linear-gradient9);
      }

      .st3 {
        fill: url(#linear-gradient3);
      }

      .st4 {
        fill: url(#linear-gradient6);
      }

      .st5 {
        fill: url(#linear-gradient8);
      }

      .st6 {
        fill: url(#linear-gradient7);
      }

      .st7 {
        fill: url(#linear-gradient5);
      }

      .st8 {
        fill: url(#linear-gradient4);
      }

      .st9 {
        mix-blend-mode: multiply;
        opacity: .57;
      }

      .st10 {
        fill: url(#linear-gradient18);
      }

      .st11 {
        fill: url(#linear-gradient13);
      }

      .st12 {
        fill: url(#linear-gradient12);
      }

      .st13 {
        fill: url(#linear-gradient15);
      }

      .st14 {
        fill: url(#linear-gradient16);
      }

      .st15 {
        fill: url(#linear-gradient11);
      }

      .st16 {
        fill: url(#linear-gradient10);
      }

      .st17 {
        fill: url(#linear-gradient17);
      }

      .st18 {
        fill: url(#linear-gradient14);
      }

      .st19 {
        fill: url(#linear-gradient19);
      }

      .st20, .st21, .st22 {
        fill: #231f20;
      }

      .st23 {
        fill: #f5b9d3;
      }

      .st24 {
        fill: url(#linear-gradient);
      }

      .st25 {
        fill: blue;
      }

      .st26 {
        isolation: isolate;
      }

      .st27 {
        fill: #ffbcd9;
      }

      .st28, .st29, .st30, .st31 {
        fill: #928b33;
      }

      .st28, .st22 {
        opacity: .52;
      }

      .st29, .st21 {
        opacity: .33;
      }

      .st30 {
        opacity: .14;
      }

      .st31 {
        opacity: .27;
      }
    </style>
    <linearGradient id="linear-gradient" x1="1.75" y1="45.67" x2="60.59" y2="8.89" gradientUnits="userSpaceOnUse">
      <stop offset="0" stop-color="#875e2b"/>
      <stop offset=".12" stop-color="#cab757"/>
      <stop offset=".18" stop-color="#dfd168"/>
      <stop offset=".22" stop-color="#d4bf5a"/>
      <stop offset=".3" stop-color="#b99336"/>
      <stop offset=".31" stop-color="#b68e32"/>
      <stop offset=".39" stop-color="#b2882f"/>
      <stop offset=".51" stop-color="#e1d267"/>
      <stop offset=".71" stop-color="#b0852d"/>
      <stop offset=".92" stop-color="#dfd263"/>
    </linearGradient>
    <linearGradient id="linear-gradient1" x1="1.75" y1="45.67" x2="60.59" y2="8.89" xlink:href="#linear-gradient"/>
    <linearGradient id="linear-gradient2" x1="86.81" y1="-39.13" x2="86.81" y2="129.68" xlink:href="#linear-gradient"/>
    <linearGradient id="linear-gradient3" x1="111.17" y1="-39.13" x2="111.17" y2="129.68" xlink:href="#linear-gradient"/>
    <linearGradient id="linear-gradient4" x1="135.59" y1="-39.59" x2="135.59" y2="130.13" xlink:href="#linear-gradient"/>
    <linearGradient id="linear-gradient5" x1="171.86" y1="-39.13" x2="171.86" y2="129.68" xlink:href="#linear-gradient"/>
    <linearGradient id="linear-gradient6" x1="194.87" y1="-39.12" x2="194.87" y2="129.66" xlink:href="#linear-gradient"/>
    <linearGradient id="linear-gradient7" x1="218.24" y1="-39.59" x2="218.24" y2="130.13" xlink:href="#linear-gradient"/>
    <linearGradient id="linear-gradient8" x1="242.86" y1="-39.62" x2="242.86" y2="130.17" xlink:href="#linear-gradient"/>
    <linearGradient id="linear-gradient9" x1="266.78" y1="-39.14" x2="266.78" y2="129.68" xlink:href="#linear-gradient"/>
    <linearGradient id="linear-gradient10" x1="306.53" y1="-39.11" x2="306.53" y2="129.71" xlink:href="#linear-gradient"/>
    <linearGradient id="linear-gradient11" x1="329.85" y1="-39.57" x2="329.85" y2="130.15" xlink:href="#linear-gradient"/>
    <linearGradient id="linear-gradient12" x1="354.35" y1="-39.6" x2="354.35" y2="130.19" xlink:href="#linear-gradient"/>
    <linearGradient id="linear-gradient13" x1="379.66" y1="-39.6" x2="379.66" y2="130.2" xlink:href="#linear-gradient"/>
    <linearGradient id="linear-gradient14" x1="404.22" y1="-39.1" x2="404.22" y2="129.68" xlink:href="#linear-gradient"/>
    <linearGradient id="linear-gradient15" x1="427.96" y1="-39.57" x2="427.96" y2="130.15" xlink:href="#linear-gradient"/>
    <linearGradient id="linear-gradient16" x1="446.87" y1="-39.27" x2="446.87" y2="129.86" xlink:href="#linear-gradient"/>
    <linearGradient id="linear-gradient17" x1="460.94" y1="-39.09" x2="460.94" y2="129.69" xlink:href="#linear-gradient"/>
    <linearGradient id="linear-gradient18" x1="477.69" y1="-39.57" x2="477.69" y2="130.15" xlink:href="#linear-gradient"/>
    <linearGradient id="linear-gradient19" x1="502.7" y1="-39.6" x2="502.7" y2="130.2" xlink:href="#linear-gradient"/>
  </defs>
  <g class="st26">
    <g id="Layer_1">
      <g>
        <circle class="st24" cx="29.08" cy="28.59" r="28.59"/>
        <path class="st30" d="M25.11,27.89l4.05-1.88,1.22-.16s-2.09.94-2.67,1.22c-1.67.8-2.3,1.14-2.3,1.14l-.3-.33Z"/>
        <path class="st31" d="M32.64,29.8s-1.26.41-2.26.81-1.82.81-1.82.81l-.99-.5s1.87-.74,2.46-1.03c1.67-.8,2.18-1.09,2.18-1.09l.43.99Z"/>
        <path class="st27" d="M38.7,4.09c11.79,4.36,19.08,17.5,16.39,29.78-2.39,12.28-14.03,21.44-26.51,21.11-.45-.01-.9-.1-.24-.49.63-.37,1.25-.75,1.84-1.23,5.11-4.37,7.16-12.26,4.62-18.52-.66-1.63-1.65-3.16-2.74-4.51-.25-.32-.46-.97-.44-1.07.01-.07.41-.26.75-.45.8-.41,1.6-.91,2.34-1.43,2.34-1.55,4.27-3.73,5.41-6.35,2.19-5.16,2.24-11.59-1.22-16.08-.17-.23-.69-.89-.23-.79h.04Z"/>
        <path class="st27" d="M29.89,32.67c2.02,2.66,3.52,5.71,3.16,9.16-.34,3.1-1.61,6.24-4.12,8.22-2.83,2.38-6.8,1.75-8.67-1.45-1.79-2.95-1.84-6.81-.72-9.93.93-3.05,3.3-5.32,6.09-6.73.92-.47,1.5-.84,1.94-1.02.79-.32.66-.37,1.26.36.25.31.6.71,1.02,1.33l.04.05Z"/>
        <g>
          <path class="st25" d="M25.43,26.99c-.89-1.16-1.76-2.22-2.36-3.56-2.8-5.82-1.45-13.09,2.67-17.97.94-1.15,2.15-2.01,3.44-2.74.27-.17.43-.3.39-.39v-.02c-.15-.1-.61-.14-.87-.11-2.65.06-5.15.51-7.58,1.28C13.02,5.99,6.24,12.57,3.75,20.71c-4.13,12.5,2.4,26.75,14.48,31.94.85.36.27-.46.05-.78-3.06-4.5-2.98-10.56-.97-15.5,1.46-3.55,4.32-6.22,7.73-7.97.13-.06.24-.12.34-.17.49-.26.45-.26.38-.68-.03-.16-.14-.34-.31-.57Z"/>
          <path class="st25" d="M32.91,5.64h-.06c-6.68-.25-10.01,9.34-7.73,14.7.7,1.85,1.79,3.36,3,4.93.24.33.54.7.91.87.34.16.3.16.6.06,2.37-.77,4.71-2.28,6.39-4.18,4.02-4.49,4.09-15.1-3.09-16.39Z"/>
        </g>
      </g>
      <g>
        <g class="st9">
          <path class="st20" d="M28.59.24C12.8.24,0,13.04,0,28.83s12.8,28.59,28.59,28.59,28.59-12.8,28.59-28.59S44.38.24,28.59.24ZM32.36,5.87h.06c7.19,1.3,7.12,11.91,3.1,16.4-1.68,1.91-4.01,3.42-6.39,4.18-.03,0-.05.02-.08.02,0,0,0,0,0,0-.21.07-.21.05-.51-.09-.02-.01-.05-.02-.07-.04-.33-.18-.61-.53-.83-.84-1.21-1.57-2.3-3.09-3-4.93-2.28-5.37,1.05-14.96,7.73-14.71ZM17.74,52.89C5.66,47.69-.87,33.45,3.26,20.95,5.75,12.82,12.54,6.23,20.63,3.72c2.43-.77,4.93-1.22,7.58-1.28.26-.03.73.01.86.11v.02c.06.08-.1.22-.38.39-1.29.74-2.51,1.59-3.44,2.74-4.11,4.88-5.47,12.15-2.67,17.97.6,1.35,1.47,2.41,2.36,3.56.17.22.28.4.31.56,0,.01,0,.02,0,.04.06.34.08.39-.22.56h0s-.03.02-.04.02c-.02,0-.03.02-.05.03,0,0-.02,0-.03.02-.01,0-.03.01-.04.02-.1.05-.21.11-.34.17-3.41,1.74-6.27,4.41-7.73,7.97-2.01,4.94-2.09,11,.97,15.5.22.32.8,1.14-.05.78ZM19.77,48.85c-1.79-2.95-1.84-6.81-.72-9.93.93-3.05,3.3-5.32,6.09-6.73.92-.47,1.5-.84,1.94-1.02.05-.02.09-.04.13-.05.01,0,.03-.01.05-.02.05-.02.12-.05.19-.08.04-.02.07-.03.1-.04,0,0,.01,0,.02,0,.29-.09.34.03.77.56t0,0c.25.31.6.71,1.02,1.32l.04.05c2.02,2.66,3.52,5.71,3.16,9.17-.34,3.1-1.61,6.24-4.12,8.22-2.83,2.38-6.8,1.75-8.67-1.45ZM28.09,55.23c-.46-.01-.9-.09-.24-.49.63-.37,1.25-.75,1.84-1.23,5.11-4.37,7.16-12.26,4.62-18.52-.66-1.63-1.65-3.16-2.74-4.51-.04-.06-.09-.13-.13-.2-.19-.33-.33-.78-.32-.87,0-.03.06-.07.14-.12,0,0,0,0,.01,0,.15-.09.38-.2.6-.32.79-.41,1.6-.91,2.34-1.43,2.34-1.55,4.28-3.73,5.41-6.34,2.19-5.16,2.24-11.59-1.22-16.08-.17-.23-.69-.89-.23-.79h.04c11.79,4.37,19.08,17.5,16.39,29.79-2.39,12.28-14.03,21.44-26.51,21.11Z"/>
          <path class="st21" d="M29.04,26.48c-.65.29-1.48.67-1.82.83-1.25.6-1.92.95-2.18,1.08.31-.17.28-.22.22-.56l3.19-1.48s.05.03.07.04c.3.14.31.15.51.09Z"/>
          <path class="st22" d="M31.44,30.28c-.45.16-1.03.36-1.54.57-.65.26-1.23.53-1.55.68t0,0c-.43-.53-.48-.65-.77-.56.59-.24,1.58-.64,1.97-.83.84-.4,1.38-.67,1.72-.84-.08.05-.14.09-.14.12-.02.09.13.54.32.87Z"/>
          <path class="st20" d="M27.45,31.02c-.09.04-.18.07-.24.1.09-.04.17-.07.24-.1Z"/>
        </g>
        <g>
          <path class="st1" d="M29.08,0C13.29,0,.48,12.8.48,28.59s12.8,28.59,28.59,28.59,28.59-12.8,28.59-28.59S44.87,0,29.08,0ZM32.84,5.63h.06c7.19,1.3,7.12,11.91,3.1,16.4-1.68,1.91-4.01,3.42-6.39,4.18-.03,0-.05.02-.08.02,0,0,0,0,0,0-.21.07-.21.05-.51-.09-.02-.01-.05-.02-.07-.04-.33-.18-.61-.53-.83-.84-1.21-1.57-2.3-3.09-3-4.93-2.28-5.37,1.05-14.96,7.73-14.71ZM18.23,52.65C6.15,47.45-.39,33.21,3.75,20.7,6.24,12.57,13.02,5.99,21.12,3.47c2.43-.77,4.93-1.22,7.58-1.28.26-.03.73.01.86.11v.02c.06.08-.1.22-.38.39-1.29.74-2.51,1.59-3.44,2.74-4.11,4.88-5.47,12.15-2.67,17.97.6,1.35,1.47,2.41,2.36,3.56.17.22.28.4.31.56,0,.01,0,.02,0,.04.06.34.08.39-.22.56h0s-.03.02-.04.02c-.02,0-.03.02-.05.03,0,0-.02,0-.03.02-.01,0-.03.01-.04.02-.1.05-.21.11-.34.17-3.41,1.74-6.27,4.41-7.73,7.97-2.01,4.94-2.09,11,.97,15.5.22.32.8,1.14-.05.78ZM20.26,48.61c-1.79-2.95-1.84-6.81-.72-9.93.93-3.05,3.3-5.32,6.09-6.73.92-.47,1.5-.84,1.94-1.02.05-.02.09-.04.13-.05.01,0,.03-.01.05-.02.05-.02.12-.05.19-.08.04-.02.07-.03.1-.04,0,0,.01,0,.02,0,.29-.09.34.03.77.56t0,0c.25.31.6.71,1.02,1.32l.04.05c2.02,2.66,3.52,5.71,3.16,9.17-.34,3.1-1.61,6.24-4.12,8.22-2.83,2.38-6.8,1.75-8.67-1.45ZM28.57,54.99c-.46-.01-.9-.09-.24-.49.63-.37,1.25-.75,1.84-1.23,5.11-4.37,7.16-12.26,4.62-18.52-.66-1.63-1.65-3.16-2.74-4.51-.04-.06-.09-.13-.13-.2-.19-.33-.33-.78-.32-.87,0-.03.06-.07.14-.12,0,0,0,0,.01,0,.15-.09.38-.2.6-.32.79-.41,1.6-.91,2.34-1.43,2.34-1.55,4.28-3.73,5.41-6.34,2.19-5.16,2.24-11.59-1.22-16.08-.17-.23-.69-.89-.23-.79h.04c11.79,4.37,19.08,17.5,16.39,29.79-2.39,12.28-14.03,21.44-26.51,21.11Z"/>
          <path class="st29" d="M29.53,26.24c-.65.29-1.48.67-1.82.83-1.25.6-1.92.95-2.18,1.08.31-.17.28-.22.22-.56l3.19-1.48s.05.03.07.04c.3.14.31.15.51.09Z"/>
          <path class="st28" d="M31.92,30.04c-.45.16-1.03.36-1.54.57-.65.26-1.23.53-1.55.68t0,0c-.43-.53-.48-.65-.77-.56.59-.24,1.58-.64,1.97-.83.84-.4,1.38-.67,1.72-.84-.08.05-.14.09-.14.12-.02.09.13.54.32.87Z"/>
          <path class="st23" d="M27.94,30.78c-.09.04-.18.07-.24.1.09-.04.17-.07.24-.1Z"/>
        </g>
      </g>
      <g>
        <g>
          <polygon class="st0" points="83.39 44.99 83.39 19.76 75.22 19.76 75.22 13.95 98.39 13.95 98.39 19.76 90.27 19.76 90.27 44.99 83.39 44.99"/>
          <path d="M98.14,14.2v5.31h-8.12v25.23h-6.38v-25.23h-8.17v-5.31h22.67M98.64,13.7h-23.67v6.31h8.17v25.23h7.38v-25.23h8.12v-6.31h0Z"/>
        </g>
        <g>
          <path class="st3" d="M115.23,44.99v-13.91c0-.75-.11-1.43-.31-2-.2-.55-.52-.98-.96-1.29-.44-.3-1.04-.46-1.79-.46-1.14,0-2.13.27-2.94.8-.8.53-1.52,1.17-2.12,1.92v14.93h-6.51V13.95h6.4v11.27c.69-.76,1.54-1.45,2.55-2.06,1.25-.75,2.86-1.14,4.8-1.14,2.36,0,4.21.71,5.48,2.11,1.27,1.4,1.91,3.48,1.91,6.19v14.66h-6.51Z"/>
          <path d="M106.74,14.2v11.71c.74-.95,1.72-1.8,2.93-2.53,1.21-.73,2.77-1.1,4.67-1.1,2.3,0,4.07.68,5.3,2.03,1.23,1.35,1.85,3.36,1.85,6.02v14.41h-6.01v-13.66c0-.79-.11-1.48-.33-2.09-.22-.6-.57-1.07-1.06-1.41-.48-.33-1.13-.5-1.93-.5-1.2,0-2.22.28-3.08.84-.85.56-1.6,1.24-2.24,2.04v14.77h-6.01V14.2h5.9M107.24,13.7h-6.9v31.54h7.01v-15.1c.58-.7,1.25-1.3,2.01-1.8.77-.5,1.71-.76,2.8-.76.69,0,1.25.14,1.65.41.4.27.68.66.87,1.16.2.55.3,1.19.3,1.92v14.16h7.01v-14.91c0-2.78-.67-4.92-1.98-6.36-1.33-1.46-3.23-2.19-5.67-2.19-1.99,0-3.65.39-4.93,1.17-.82.5-1.55,1.05-2.17,1.66v-10.91h0Z"/>
        </g>
        <g>
          <path class="st8" d="M136.09,45.4c-2.5,0-4.63-.47-6.34-1.4-1.72-.94-3.04-2.31-3.92-4.07-.88-1.75-1.32-3.88-1.32-6.33s.43-4.45,1.29-6.17c.86-1.73,2.14-3.08,3.8-4.02,1.66-.93,3.72-1.41,6.12-1.41,3.35,0,6.04,1,7.99,2.97,1.95,1.97,2.94,4.8,2.94,8.43,0,.18,0,.43-.02.75-.02.32-.04.57-.07.75l-.04.21h-15.49c.05.92.24,1.78.55,2.59.34.86.88,1.56,1.6,2.08.72.52,1.7.78,2.9.78s2.25-.27,2.99-.8c.72-.52,1.08-1.28,1.1-2.33v-.25h6.43v.26c-.09,1.77-.58,3.27-1.48,4.45-.89,1.18-2.13,2.08-3.67,2.66-1.53.57-3.33.87-5.36.87ZM140.18,30.79c-.08-1.34-.51-2.35-1.28-3.02-.82-.72-1.89-1.08-3.18-1.08s-2.42.38-3.25,1.12c-.78.69-1.23,1.7-1.36,2.99h9.07Z"/>
          <path d="M135.72,22.25c3.3,0,5.9.96,7.82,2.89,1.91,1.93,2.87,4.68,2.87,8.25,0,.18,0,.43-.02.74-.02.31-.04.55-.07.72h-15.54c.03,1.04.22,2.02.58,2.93.36.91.92,1.64,1.69,2.19.77.55,1.78.83,3.04.83s2.34-.28,3.13-.85c.79-.57,1.19-1.41,1.2-2.53h5.92c-.08,1.72-.55,3.16-1.42,4.31-.87,1.15-2.06,2.01-3.56,2.58-1.51.57-3.26.85-5.28.85-2.47,0-4.54-.46-6.22-1.37-1.68-.92-2.95-2.24-3.81-3.96-.86-1.72-1.29-3.8-1.29-6.22s.42-4.36,1.26-6.06c.84-1.69,2.07-3,3.7-3.91,1.63-.91,3.63-1.37,6-1.37M130.84,31.04h9.6c-.05-1.54-.5-2.7-1.37-3.46-.87-.76-1.99-1.15-3.35-1.15s-2.53.39-3.42,1.18c-.89.79-1.37,1.93-1.46,3.43M135.72,21.75c-2.45,0-4.55.48-6.25,1.44-1.71.96-3.02,2.35-3.9,4.13-.87,1.75-1.31,3.87-1.31,6.28s.45,4.65,1.35,6.44c.9,1.81,2.26,3.21,4.02,4.18,1.75.95,3.92,1.43,6.46,1.43,2.06,0,3.9-.3,5.45-.88,1.59-.6,2.86-1.52,3.78-2.74.93-1.23,1.44-2.77,1.52-4.59l.02-.52h-6.94v.49c-.02.96-.35,1.66-1,2.13-.7.5-1.65.76-2.84.76s-2.07-.25-2.75-.73c-.7-.5-1.19-1.14-1.52-1.97-.27-.7-.45-1.45-.51-2.24h15.43l.07-.41c.03-.19.06-.45.08-.78.02-.32.02-.57.02-.76,0-3.69-1.01-6.58-3.02-8.6-2-2.02-4.75-3.04-8.17-3.04h0ZM131.39,30.54c.15-1.11.56-1.95,1.24-2.55.8-.71,1.81-1.05,3.08-1.05s2.23.33,3.02,1.02c.66.58,1.05,1.45,1.17,2.59h-8.51Z"/>
        </g>
        <g>
          <polygon class="st7" points="161.36 44.99 161.36 13.95 182.35 13.95 182.35 19.74 168.24 19.74 168.24 26.34 181.04 26.34 181.04 31.94 168.24 31.94 168.24 39.21 182.35 39.21 182.35 44.99 161.36 44.99"/>
          <path d="M182.1,14.2v5.29h-14.11v7.1h12.8v5.11h-12.8v7.76h14.11v5.29h-20.49V14.2h20.49M182.6,13.7h-21.49v31.54h21.49v-6.29h-14.11v-6.76h12.8v-6.11h-12.8v-6.1h14.11v-6.29h0Z"/>
        </g>
        <g>
          <path class="st4" d="M192.66,45.38c-1.71,0-3.26-.43-4.61-1.29-1.36-.85-2.45-2.18-3.23-3.93-.77-1.74-1.17-3.98-1.17-6.65s.42-4.75,1.26-6.44c.84-1.7,2-2.99,3.44-3.83,1.44-.84,3.08-1.26,4.87-1.26,1.58,0,2.96.33,4.1.99.89.51,1.65,1.16,2.26,1.93v-10.95h6.51v31.04h-6.25l-.22-2.74c-.73.88-1.61,1.6-2.61,2.14-1.2.65-2.67.98-4.36.98ZM194.72,27.04c-1.41,0-2.47.53-3.25,1.62-.78,1.1-1.18,2.73-1.18,4.85,0,2.33.38,4.07,1.12,5.17.74,1.09,1.72,1.61,3,1.61,1.21,0,2.26-.34,3.14-1.01.87-.67,1.55-1.46,2.01-2.36v-6.35c-.45-.94-1.09-1.78-1.89-2.48-.8-.7-1.8-1.05-2.97-1.05Z"/>
          <path d="M205.84,14.2v30.54h-5.76l-.25-3.15c-.79,1.09-1.76,1.95-2.93,2.59-1.16.64-2.58.95-4.24.95s-3.16-.42-4.48-1.25c-1.32-.83-2.37-2.11-3.13-3.82-.76-1.72-1.15-3.9-1.15-6.55s.41-4.67,1.24-6.33c.82-1.66,1.94-2.9,3.35-3.72,1.41-.82,2.99-1.23,4.74-1.23,1.54,0,2.87.32,3.97.95,1.1.64,1.98,1.47,2.63,2.5v-11.48h6.01M194.43,40.54c1.27,0,2.37-.36,3.29-1.07.92-.71,1.63-1.54,2.11-2.5v-6.47c-.47-1-1.13-1.87-1.97-2.61-.85-.74-1.89-1.11-3.13-1.11-1.48,0-2.63.58-3.45,1.73-.82,1.15-1.23,2.81-1.23,4.99,0,2.39.39,4.16,1.17,5.31.78,1.15,1.85,1.72,3.21,1.72M206.34,13.7h-7.01v10.53c-.54-.57-1.17-1.06-1.88-1.48-1.17-.68-2.59-1.02-4.22-1.02-1.84,0-3.52.43-4.99,1.29-1.49.86-2.68,2.19-3.54,3.93-.85,1.73-1.29,3.93-1.29,6.55s.4,4.98,1.19,6.75c.8,1.8,1.92,3.16,3.32,4.04,1.4.88,3,1.32,4.75,1.32s3.25-.34,4.48-1.01c.86-.47,1.62-1.06,2.29-1.76l.15,1.93.04.46h6.73V13.7h0ZM194.43,40.04c-1.2,0-2.11-.49-2.8-1.5-.72-1.06-1.08-2.75-1.08-5.03,0-2.06.38-3.65,1.13-4.7.72-1.02,1.72-1.51,3.04-1.51,1.12,0,2.04.32,2.8.99.76.67,1.37,1.46,1.8,2.35v6.23c-.45.84-1.09,1.59-1.92,2.22-.84.65-1.82.96-2.99.96h0Z"/>
        </g>
        <g>
          <path class="st6" d="M218.74,45.4c-2.5,0-4.63-.47-6.34-1.4-1.72-.94-3.03-2.3-3.92-4.07-.88-1.75-1.32-3.88-1.32-6.33s.43-4.45,1.29-6.17c.86-1.73,2.14-3.08,3.8-4.02,1.66-.93,3.72-1.41,6.12-1.41,3.35,0,6.04,1,8,2.97,1.95,1.97,2.94,4.8,2.94,8.43,0,.18,0,.43-.02.75-.02.32-.04.57-.07.75l-.04.21h-15.49c.05.91.24,1.78.55,2.59.34.86.88,1.56,1.6,2.08.72.52,1.7.78,2.89.78s2.25-.27,2.99-.8c.72-.52,1.08-1.28,1.1-2.33v-.25h6.43v.26c-.09,1.77-.58,3.27-1.48,4.45-.89,1.18-2.13,2.08-3.67,2.66-1.53.57-3.33.87-5.36.87ZM222.83,30.79c-.08-1.34-.51-2.35-1.28-3.02-.82-.72-1.89-1.08-3.18-1.08s-2.42.38-3.25,1.12c-.78.69-1.23,1.7-1.36,2.99h9.07Z"/>
          <path d="M218.37,22.25c3.3,0,5.9.96,7.82,2.89,1.91,1.93,2.87,4.68,2.87,8.25,0,.18,0,.43-.02.74-.02.31-.04.55-.07.72h-15.54c.03,1.04.22,2.02.58,2.93.36.91.92,1.64,1.69,2.19.77.55,1.78.83,3.04.83s2.34-.28,3.13-.85c.79-.57,1.19-1.41,1.2-2.53h5.92c-.08,1.72-.55,3.16-1.42,4.31-.87,1.15-2.06,2.01-3.56,2.58-1.51.57-3.26.85-5.28.85-2.47,0-4.54-.46-6.22-1.37-1.68-.92-2.95-2.24-3.81-3.96-.86-1.72-1.29-3.8-1.29-6.22s.42-4.36,1.26-6.06c.84-1.69,2.07-3,3.7-3.91,1.63-.91,3.63-1.37,6-1.37M213.5,31.04h9.6c-.05-1.54-.5-2.7-1.37-3.46-.87-.76-1.99-1.15-3.35-1.15s-2.53.39-3.42,1.18c-.89.79-1.37,1.93-1.46,3.43M218.37,21.75c-2.45,0-4.55.48-6.25,1.44-1.71.96-3.02,2.35-3.9,4.13-.87,1.75-1.31,3.87-1.31,6.28s.45,4.65,1.35,6.44c.9,1.81,2.26,3.21,4.02,4.18,1.75.95,3.92,1.43,6.46,1.43,2.06,0,3.9-.3,5.45-.88,1.59-.6,2.86-1.52,3.78-2.74.93-1.23,1.44-2.77,1.52-4.59l.02-.52h-6.94v.49c-.02.96-.35,1.66-1,2.13-.7.5-1.65.76-2.84.76s-2.07-.25-2.75-.73c-.7-.5-1.19-1.14-1.52-1.97-.27-.7-.45-1.45-.51-2.24h15.43l.07-.41c.03-.19.06-.45.08-.78.02-.32.02-.57.02-.76,0-3.69-1.01-6.58-3.02-8.6-2-2.02-4.75-3.04-8.17-3.04h0ZM214.05,30.54c.15-1.11.56-1.95,1.24-2.55.8-.71,1.81-1.05,3.08-1.05s2.23.33,3.02,1.02c.66.58,1.05,1.45,1.17,2.59h-8.51Z"/>
        </g>
        <g>
          <path class="st5" d="M246.97,44.99v-13.89c0-.77-.11-1.45-.32-2.02-.21-.55-.54-.99-.98-1.29-.45-.3-1.05-.46-1.8-.46-1.14,0-2.13.27-2.94.8-.8.53-1.52,1.17-2.12,1.92v14.93h-6.51v-22.65h6.28l.1,2.9c.69-.77,1.55-1.47,2.57-2.08,1.25-.75,2.88-1.14,4.85-1.14,2.32,0,4.14.72,5.43,2.14,1.28,1.41,1.93,3.49,1.93,6.17v14.66h-6.47Z"/>
          <path d="M246.08,22.28c2.25,0,4,.68,5.24,2.05,1.24,1.37,1.86,3.37,1.86,6v14.41h-5.97v-13.64c0-.8-.11-1.51-.34-2.11-.23-.6-.59-1.07-1.08-1.41-.49-.33-1.14-.5-1.94-.5-1.2,0-2.22.28-3.08.84-.85.56-1.6,1.24-2.24,2.04v14.77h-6.01v-22.15h5.79l.11,3.31c.74-.95,1.72-1.8,2.93-2.53,1.21-.73,2.78-1.1,4.72-1.1M246.08,21.78c-2.02,0-3.69.39-4.98,1.17-.84.51-1.58,1.08-2.21,1.7l-.07-2.07-.02-.48h-6.77v23.15h7.01v-15.1c.58-.7,1.25-1.3,2.01-1.8.77-.5,1.71-.76,2.8-.76.7,0,1.25.14,1.66.41.41.28.7.66.89,1.17.2.55.31,1.2.31,1.94v14.14h6.97v-14.91c0-2.75-.67-4.88-1.99-6.34-1.33-1.47-3.22-2.22-5.61-2.22h0Z"/>
        </g>
        <g>
          <path class="st2" d="M266.8,45.4c-1.35,0-2.68-.17-3.97-.51-1.29-.34-2.48-.88-3.52-1.6-1.05-.73-1.89-1.69-2.51-2.85-.61-1.16-.92-2.57-.92-4.19,0-1.93.53-3.53,1.58-4.77.91-1.07,2.07-1.86,3.45-2.37-1.05-.51-1.92-1.26-2.6-2.24-.8-1.16-1.21-2.64-1.21-4.37,0-1.92.47-3.51,1.39-4.71.92-1.2,2.13-2.08,3.61-2.62,1.46-.54,3.04-.81,4.69-.81s3.21.28,4.67.82c1.47.55,2.69,1.43,3.61,2.62.92,1.2,1.39,2.78,1.39,4.7,0,1.74-.44,3.23-1.31,4.42-.71.98-1.55,1.72-2.49,2.19,1.38.5,2.53,1.3,3.43,2.37,1.04,1.24,1.57,2.84,1.57,4.77,0,1.62-.31,3.03-.93,4.19-.61,1.16-1.45,2.11-2.48,2.84-1.03.72-2.2,1.26-3.48,1.6-1.28.34-2.62.51-3.98.51ZM266.7,31.74c-.68,0-1.35.15-1.98.43-.65.3-1.19.75-1.6,1.35-.41.6-.61,1.36-.61,2.25,0,1.43.43,2.51,1.27,3.21.86.71,1.86,1.08,2.99,1.08.75,0,1.46-.15,2.12-.45.65-.3,1.18-.76,1.57-1.39.4-.63.6-1.45.6-2.44,0-.89-.19-1.64-.57-2.24-.38-.6-.89-1.06-1.53-1.36-.61-.29-1.3-.44-2.05-.44h-.21ZM266.8,26.88l.1-.25c.61,0,1.19-.14,1.71-.4.54-.28.99-.7,1.32-1.25.33-.55.5-1.24.5-2.05,0-1.21-.36-2.11-1.06-2.66-.72-.57-1.59-.85-2.57-.85-.63,0-1.23.13-1.78.39-.55.25-1,.64-1.34,1.15-.34.51-.51,1.18-.51,1.98s.17,1.48.5,2.04c.33.55.78.98,1.33,1.25.53.27,1.11.41,1.71.41h.1s0,.25,0,.25Z"/>
          <path d="M266.8,14.61c1.62,0,3.15.27,4.58.81,1.44.54,2.6,1.38,3.5,2.54.89,1.16,1.34,2.67,1.34,4.55,0,1.69-.42,3.12-1.26,4.28-.84,1.16-1.83,1.95-2.98,2.37,1.62.47,2.93,1.3,3.94,2.5,1.01,1.2,1.51,2.73,1.51,4.61,0,1.59-.3,2.95-.9,4.07-.6,1.13-1.4,2.05-2.41,2.76-1.01.71-2.14,1.23-3.4,1.57-1.26.33-2.57.5-3.91.5s-2.63-.17-3.9-.5c-1.27-.33-2.42-.85-3.44-1.57-1.02-.71-1.83-1.63-2.43-2.76-.6-1.13-.9-2.49-.9-4.07,0-1.88.51-3.41,1.52-4.61,1.01-1.19,2.34-2.03,3.97-2.5-1.29-.48-2.32-1.29-3.1-2.42-.78-1.13-1.17-2.54-1.17-4.23,0-1.88.45-3.4,1.34-4.56.89-1.16,2.06-2.01,3.49-2.54,1.44-.53,2.97-.79,4.61-.79M266.71,26.88s.07,0,.1,0c.03,0,.07,0,.1,0,.66,0,1.27-.14,1.83-.43.59-.3,1.06-.75,1.42-1.34.35-.59.53-1.32.53-2.18,0-1.3-.39-2.25-1.16-2.86-.77-.61-1.68-.91-2.72-.91-.67,0-1.29.14-1.88.41-.59.27-1.07.68-1.44,1.24-.37.55-.56,1.26-.56,2.12s.18,1.57.53,2.17c.36.6.83,1.05,1.43,1.35.57.29,1.18.43,1.82.43M266.78,40.32c.79,0,1.53-.16,2.22-.48.7-.32,1.25-.81,1.68-1.49.42-.67.64-1.53.64-2.58,0-.94-.2-1.73-.61-2.37-.41-.64-.95-1.13-1.63-1.45-.65-.31-1.37-.47-2.16-.47-.04,0-.07,0-.11,0-.03,0-.07,0-.1,0-.72,0-1.41.15-2.08.45-.7.32-1.26.8-1.7,1.44-.44.64-.66,1.44-.66,2.39,0,1.51.45,2.65,1.36,3.4.91.76,1.96,1.13,3.15,1.13M266.8,14.11c-1.68,0-3.29.28-4.78.83-1.52.56-2.77,1.47-3.72,2.71-.96,1.25-1.44,2.89-1.44,4.87,0,1.79.42,3.31,1.26,4.52.59.86,1.33,1.55,2.21,2.07-1.21.52-2.23,1.27-3.05,2.24-1.09,1.28-1.64,2.94-1.64,4.93,0,1.66.32,3.11.95,4.31.63,1.19,1.5,2.18,2.58,2.93,1.07.74,2.28,1.29,3.6,1.64,1.31.34,2.66.52,4.03.52s2.74-.17,4.04-.52c1.31-.35,2.51-.9,3.56-1.64,1.07-.75,1.93-1.74,2.56-2.93.63-1.2.95-2.65.95-4.31,0-1.99-.55-3.65-1.63-4.93-.82-.97-1.84-1.72-3.04-2.25.78-.48,1.49-1.16,2.11-2.01.9-1.24,1.35-2.78,1.35-4.57,0-1.98-.49-3.61-1.44-4.86-.95-1.23-2.2-2.14-3.72-2.7-1.49-.56-3.09-.84-4.76-.84h0ZM266.71,26.38c-.56,0-1.1-.13-1.59-.38-.52-.26-.92-.64-1.23-1.16-.31-.52-.46-1.16-.46-1.91s.16-1.38.47-1.84c.32-.48.73-.83,1.24-1.06.52-.24,1.08-.36,1.67-.36.94,0,1.73.26,2.41.8.65.51.97,1.32.97,2.47,0,.76-.16,1.41-.46,1.92-.31.51-.71.89-1.22,1.15-.49.25-1.03.38-1.6.38h-.09s-.11,0-.11,0h0ZM266.78,39.82c-1.08,0-2.01-.33-2.83-1.02-.8-.66-1.18-1.65-1.18-3.02,0-.85.19-1.56.57-2.11.38-.56.89-.99,1.5-1.27.6-.27,1.23-.41,1.87-.41h.09s.12,0,.12,0c.71,0,1.37.14,1.95.42.59.28,1.07.71,1.43,1.27.36.56.54,1.27.54,2.1,0,.94-.19,1.72-.56,2.31-.37.59-.85,1.02-1.46,1.3-.63.29-1.31.43-2.02.43h0Z"/>
        </g>
      </g>
      <g>
        <g>
          <polygon class="st16" points="296.3 45.01 296.3 13.97 316.76 13.97 316.76 19.76 303.17 19.76 303.17 26.41 315.36 26.41 315.36 31.97 303.17 31.97 303.17 45.01 296.3 45.01"/>
          <path d="M316.51,14.22v5.29h-13.59v7.15h12.19v5.06h-12.19v13.05h-6.38V14.22h19.97M317.01,13.72h-20.97v31.54h7.38v-13.05h12.19v-6.06h-12.19v-6.15h13.59v-6.29h0Z"/>
        </g>
        <g>
          <path class="st15" d="M329.81,45.38c-2.27,0-4.29-.46-6.01-1.37-1.72-.91-3.07-2.25-4.02-3.98-.94-1.72-1.41-3.83-1.41-6.27s.48-4.62,1.41-6.37c.94-1.75,2.29-3.11,4.02-4.03,1.72-.92,3.74-1.38,6.01-1.38s4.34.46,6.05,1.38c1.72.92,3.08,2.27,4.04,4.03.95,1.75,1.44,3.89,1.44,6.37s-.48,4.55-1.44,6.27c-.96,1.73-2.32,3.07-4.04,3.98-1.71.91-3.75,1.37-6.05,1.37ZM329.81,27.11c-1.22,0-2.18.29-2.87.87-.69.59-1.19,1.39-1.47,2.37-.29,1.01-.44,2.16-.44,3.4s.15,2.34.44,3.33c.29.98.78,1.76,1.47,2.34.68.57,1.65.86,2.87.86s2.24-.29,2.94-.86c.71-.58,1.21-1.36,1.51-2.34.3-1,.45-2.12.45-3.33s-.15-2.38-.45-3.4c-.29-.99-.8-1.79-1.51-2.38-.7-.58-1.69-.87-2.94-.87Z"/>
          <path d="M329.81,22.23c2.27,0,4.25.45,5.93,1.35,1.69.9,3,2.21,3.94,3.93.94,1.72,1.41,3.8,1.41,6.25s-.47,4.45-1.41,6.15c-.94,1.69-2.25,2.99-3.94,3.88-1.69.89-3.67,1.34-5.93,1.34s-4.2-.45-5.89-1.34c-1.69-.89-2.99-2.19-3.91-3.88-.92-1.69-1.38-3.74-1.38-6.15s.46-4.53,1.38-6.25c.92-1.72,2.23-3.03,3.91-3.93,1.69-.9,3.65-1.35,5.89-1.35M329.81,40.54c1.32,0,2.35-.31,3.1-.92.75-.61,1.28-1.43,1.59-2.46.31-1.03.47-2.16.47-3.4s-.16-2.43-.47-3.47c-.31-1.04-.84-1.88-1.59-2.5-.75-.62-1.78-.93-3.1-.93s-2.3.31-3.03.93c-.73.62-1.25,1.45-1.55,2.5-.3,1.04-.45,2.2-.45,3.47s.15,2.38.45,3.4c.3,1.03.82,1.85,1.55,2.46.73.61,1.74.92,3.03.92M329.81,21.73c-2.31,0-4.37.47-6.12,1.41-1.77.94-3.15,2.33-4.12,4.13-.96,1.78-1.44,3.96-1.44,6.49s.49,4.63,1.45,6.39c.97,1.77,2.35,3.15,4.12,4.08,1.75.93,3.81,1.4,6.12,1.4s4.42-.47,6.17-1.4c1.76-.93,3.16-2.31,4.14-4.08.98-1.76,1.47-3.91,1.47-6.39s-.49-4.71-1.47-6.49c-.98-1.8-2.37-3.19-4.14-4.13-1.75-.93-3.83-1.41-6.17-1.41h0ZM329.81,40.04c-1.16,0-2.07-.27-2.71-.8-.65-.55-1.12-1.29-1.39-2.22-.29-.98-.43-2.07-.43-3.26s.15-2.34.43-3.33c.27-.94.74-1.7,1.4-2.25.64-.54,1.55-.81,2.71-.81s2.13.27,2.78.82c.67.55,1.15,1.31,1.43,2.25.29.99.44,2.11.44,3.33s-.15,2.28-.44,3.26c-.28.93-.76,1.67-1.43,2.22-.65.53-1.59.81-2.78.81h0Z"/>
        </g>
        <g>
          <path class="st12" d="M350.99,45.31c-2.3,0-4.11-.73-5.38-2.16-1.26-1.42-1.9-3.47-1.9-6.08v-14.7h6.51v13.98c0,.72.11,1.37.31,1.92.2.53.52.94.99,1.23.46.29,1.09.44,1.88.44,1.16,0,2.16-.26,2.96-.77.8-.5,1.52-1.12,2.12-1.84v-14.95h6.51v22.65h-6.3l-.08-2.93c-.71.76-1.61,1.46-2.68,2.08-1.32.76-2.98,1.15-4.94,1.15Z"/>
          <path d="M364.74,22.62v22.15h-5.81l-.09-3.34c-.74.94-1.75,1.78-3.04,2.52-1.29.74-2.89,1.11-4.81,1.11-2.24,0-3.97-.69-5.2-2.08-1.23-1.38-1.84-3.35-1.84-5.91v-14.45h6.01v13.73c0,.76.11,1.43.33,2.01s.58,1.03,1.09,1.35c.51.32,1.18.48,2.01.48,1.21,0,2.24-.27,3.1-.81.85-.54,1.6-1.19,2.24-1.96v-14.79h6.01M365.24,22.12h-7.01v15.11c-.57.67-1.25,1.25-2,1.72-.77.48-1.72.73-2.83.73-.73,0-1.32-.13-1.74-.4-.42-.26-.71-.62-.89-1.1-.2-.52-.3-1.14-.3-1.83v-14.23h-7.01v14.95c0,2.67.66,4.77,1.96,6.24,1.32,1.49,3.19,2.24,5.57,2.24,2,0,3.7-.4,5.06-1.18.9-.52,1.68-1.09,2.32-1.71l.06,2.1v.49h6.81v-23.15h0Z"/>
        </g>
        <g>
          <path class="st11" d="M383.76,45.01v-13.89c0-.77-.11-1.45-.32-2.02-.21-.55-.54-.98-.98-1.29-.45-.3-1.05-.46-1.8-.46-1.14,0-2.13.27-2.94.8-.8.53-1.52,1.17-2.12,1.92v14.94h-6.51v-22.65h6.28l.1,2.9c.69-.77,1.55-1.47,2.57-2.08,1.25-.75,2.88-1.14,4.85-1.14,2.32,0,4.14.72,5.43,2.14,1.28,1.41,1.93,3.49,1.93,6.17v14.66h-6.47Z"/>
          <path d="M382.88,22.3c2.25,0,4,.68,5.24,2.05,1.24,1.37,1.86,3.37,1.86,6v14.41h-5.97v-13.64c0-.8-.11-1.51-.34-2.11-.23-.6-.59-1.07-1.08-1.41-.49-.33-1.14-.5-1.94-.5-1.2,0-2.22.28-3.08.84-.85.56-1.6,1.24-2.24,2.04v14.77h-6.01v-22.15h5.79l.11,3.31c.74-.95,1.72-1.8,2.93-2.53,1.21-.73,2.78-1.1,4.72-1.1M382.88,21.8c-2.02,0-3.69.39-4.98,1.17-.84.51-1.58,1.08-2.21,1.7l-.07-2.07-.02-.48h-6.77v23.15h7.01v-15.1c.58-.7,1.25-1.3,2.01-1.8.77-.5,1.71-.76,2.8-.76.7,0,1.25.14,1.66.41.41.28.7.66.89,1.17.2.55.31,1.2.31,1.94v14.14h6.97v-14.91c0-2.75-.67-4.88-1.99-6.34-1.33-1.47-3.22-2.22-5.61-2.22h0Z"/>
        </g>
        <g>
          <path class="st18" d="M402.01,45.4c-1.7,0-3.26-.43-4.61-1.29-1.36-.86-2.45-2.18-3.23-3.93-.77-1.74-1.17-3.98-1.17-6.65s.42-4.75,1.26-6.44c.84-1.7,2-2.99,3.44-3.83,1.44-.84,3.08-1.26,4.87-1.26,1.58,0,2.96.33,4.09.99.89.51,1.65,1.16,2.26,1.93v-10.95h6.51v31.04h-6.25l-.22-2.74c-.73.88-1.61,1.6-2.61,2.14-1.2.65-2.67.98-4.36.98ZM404.07,27.06c-1.41,0-2.47.53-3.25,1.62-.78,1.1-1.18,2.73-1.18,4.85,0,2.33.38,4.07,1.12,5.17.74,1.09,1.72,1.61,3,1.61,1.21,0,2.26-.34,3.14-1.01.87-.67,1.55-1.46,2.01-2.36v-6.35c-.45-.94-1.08-1.77-1.89-2.48-.8-.7-1.8-1.05-2.97-1.05Z"/>
          <path d="M415.19,14.22v30.54h-5.76l-.25-3.15c-.79,1.09-1.76,1.95-2.93,2.59-1.16.64-2.58.95-4.24.95s-3.16-.42-4.48-1.25c-1.32-.83-2.37-2.11-3.13-3.82-.76-1.72-1.15-3.9-1.15-6.55s.41-4.67,1.24-6.33c.82-1.66,1.94-2.9,3.35-3.72,1.41-.82,2.99-1.23,4.74-1.23,1.54,0,2.87.32,3.97.95,1.1.64,1.98,1.47,2.63,2.5v-11.48h6.01M403.78,40.57c1.27,0,2.37-.36,3.29-1.07.92-.71,1.63-1.54,2.11-2.5v-6.47c-.47-1-1.13-1.87-1.97-2.61-.85-.74-1.89-1.11-3.13-1.11-1.48,0-2.63.58-3.45,1.73s-1.23,2.81-1.23,4.99c0,2.39.39,4.16,1.17,5.31.78,1.15,1.85,1.72,3.21,1.72M415.69,13.72h-7.01v10.53c-.54-.57-1.17-1.06-1.88-1.48-1.17-.68-2.59-1.02-4.22-1.02-1.84,0-3.52.43-4.99,1.29-1.49.86-2.68,2.19-3.54,3.93-.85,1.73-1.29,3.93-1.29,6.55s.4,4.98,1.19,6.75c.8,1.8,1.92,3.16,3.32,4.04,1.4.88,3,1.32,4.75,1.32s3.25-.34,4.48-1.01c.86-.47,1.62-1.06,2.29-1.76l.15,1.93.04.46h6.73V13.72h0ZM403.78,40.07c-1.2,0-2.11-.49-2.8-1.5-.72-1.06-1.08-2.75-1.08-5.03,0-2.06.38-3.65,1.13-4.7.72-1.02,1.72-1.51,3.04-1.51,1.12,0,2.04.32,2.8.99.76.67,1.37,1.46,1.8,2.35v6.23c-.45.84-1.09,1.59-1.92,2.22-.84.65-1.82.96-2.99.96h0Z"/>
        </g>
        <g>
          <path class="st13" d="M424.86,45.4c-1.28,0-2.5-.25-3.62-.75-1.13-.5-2.05-1.27-2.75-2.28-.7-1.01-1.05-2.29-1.05-3.81,0-2.11.65-3.73,1.93-4.81,1.25-1.06,3.02-1.79,5.26-2.17,2.15-.36,4.66-.58,7.47-.65v-.94c0-1.35-.31-2.27-.94-2.75-.64-.49-1.48-.74-2.51-.74-1.14,0-2.08.27-2.8.8-.71.52-1.06,1.36-1.06,2.56v.25h-6.13v-.25c0-1.94.43-3.5,1.29-4.64.85-1.14,2.04-1.97,3.55-2.47,1.48-.49,3.21-.74,5.15-.74,1.42,0,2.73.12,3.91.36,1.19.24,2.24.66,3.12,1.25.89.6,1.58,1.42,2.07,2.45.48,1.02.73,2.3.73,3.82v15.11h-6.11l-.16-2.53c-.87.89-1.86,1.58-2.95,2.07-1.27.56-2.75.85-4.39.85ZM432.03,34.78c-2.99.03-5.12.32-6.32.87-1.18.54-1.76,1.39-1.76,2.6,0,.86.25,1.48.78,1.89.54.42,1.24.63,2.1.63,1.08,0,2.1-.29,3.01-.85.9-.55,1.64-1.19,2.18-1.89v-3.25Z"/>
          <path d="M428.65,22.28c1.41,0,2.69.12,3.86.35,1.16.23,2.17.64,3.03,1.21.85.57,1.52,1.36,1.99,2.35.47.99.7,2.23.7,3.71v14.86h-5.63l-.18-2.88c-.94,1.07-2.03,1.89-3.27,2.44-1.24.55-2.67.83-4.29.83-1.26,0-2.43-.24-3.52-.73-1.09-.48-1.97-1.21-2.64-2.19-.67-.98-1.01-2.2-1.01-3.67,0-2.04.61-3.58,1.84-4.62,1.23-1.04,2.94-1.74,5.14-2.11,2.2-.37,4.76-.59,7.68-.65v-1.18c0-1.44-.34-2.42-1.03-2.95-.69-.53-1.58-.79-2.67-.79-1.2,0-2.18.28-2.95.85-.77.57-1.16,1.49-1.16,2.76h-5.63c0-1.89.41-3.39,1.24-4.49.82-1.1,1.97-1.9,3.43-2.38,1.46-.48,3.15-.73,5.07-.73M426.84,41.02c1.14,0,2.18-.3,3.14-.89.96-.59,1.73-1.26,2.3-2.02v-3.59c-3.18.02-5.4.31-6.67.9-1.27.58-1.91,1.52-1.91,2.83,0,.94.29,1.63.87,2.09.58.45,1.33.68,2.26.68M428.65,21.78c-1.96,0-3.72.25-5.23.75-1.55.52-2.79,1.38-3.67,2.56-.89,1.19-1.34,2.8-1.34,4.79v.5h6.63v-.5c0-1.11.31-1.88.95-2.35.68-.5,1.57-.75,2.65-.75.97,0,1.77.23,2.36.69.56.43.84,1.29.84,2.55v.69c-2.73.07-5.17.29-7.26.64-2.28.38-4.09,1.13-5.38,2.22-1.34,1.13-2.02,2.81-2.02,5,0,1.56.37,2.89,1.1,3.95.72,1.05,1.68,1.84,2.85,2.36,1.15.51,2.4.77,3.72.77,1.68,0,3.19-.29,4.49-.87.96-.43,1.85-1.01,2.64-1.74l.11,1.76.03.47h6.6v-15.36c0-1.55-.25-2.87-.75-3.92-.51-1.07-1.23-1.93-2.16-2.55-.91-.61-1.98-1.04-3.21-1.29-1.19-.24-2.52-.36-3.96-.36h0ZM426.84,40.52c-.8,0-1.46-.19-1.95-.58-.46-.36-.68-.91-.68-1.69,0-1.1.53-1.87,1.61-2.37,1.13-.52,3.14-.8,5.96-.85v2.91c-.52.65-1.22,1.24-2.07,1.77-.88.54-1.85.81-2.88.81h0Z"/>
        </g>
        <g>
          <path class="st14" d="M451.79,45.01c-2.26,0-4.05-.28-5.31-.83-1.29-.56-2.2-1.44-2.71-2.63-.5-1.15-.75-2.67-.75-4.51v-9.55h-3.68v-5.13h3.68v-5.22h6.51v5.22h4.83v5.13h-4.83v9.19c0,1.11.15,1.94.45,2.46.28.47.95.71,2,.71h2.38v5.15h-2.59Z"/>
          <path d="M449.3,17.4v5.22h4.83v4.63h-4.83v9.44c0,1.16.16,2.03.49,2.59.33.56,1.06.84,2.21.84h2.13v4.65h-2.34c-2.24,0-3.97-.27-5.21-.81-1.23-.54-2.09-1.37-2.58-2.5-.48-1.13-.73-2.6-.73-4.41v-9.8h-3.68v-4.63h3.68v-5.22h6.01M449.8,16.9h-7.01v5.22h-3.68v5.63h3.68v9.3c0,1.87.26,3.43.77,4.61.53,1.24,1.49,2.17,2.84,2.76,1.29.56,3.11.85,5.41.85h2.84v-5.65h-2.63c-.66,0-1.5-.1-1.78-.59-.28-.48-.42-1.26-.42-2.34v-8.94h4.83v-5.63h-4.83v-5.22h0Z"/>
        </g>
        <g>
          <path class="st17" d="M457.67,45.01v-22.65h6.51v22.65h-6.51ZM460.94,19.96c-1.17,0-2.08-.31-2.7-.91-.63-.61-.95-1.37-.95-2.27s.32-1.68.95-2.28c.63-.6,1.54-.9,2.7-.9s2.07.3,2.7.9c.63.6.95,1.37.95,2.28s-.32,1.66-.95,2.27c-.63.6-1.54.91-2.7.91Z"/>
          <path d="M460.94,13.86c1.1,0,1.95.28,2.53.83.58.55.87,1.25.87,2.1s-.29,1.53-.87,2.09c-.58.56-1.43.84-2.53.84s-1.95-.28-2.53-.84c-.58-.56-.87-1.26-.87-2.09s.29-1.55.87-2.1c.58-.55,1.43-.83,2.53-.83M463.94,22.62v22.15h-6.01v-22.15h6.01M460.94,13.36c-1.23,0-2.2.32-2.87.97-.68.65-1.03,1.48-1.03,2.46s.35,1.79,1.03,2.45c.68.65,1.64.98,2.88.98s2.2-.33,2.88-.98c.68-.65,1.03-1.48,1.03-2.45s-.35-1.81-1.03-2.46c-.68-.64-1.64-.97-2.87-.97h0ZM464.44,22.12h-7.01v23.15h7.01v-23.15h0Z"/>
        </g>
        <g>
          <path class="st10" d="M477.64,45.38c-2.27,0-4.29-.46-6.01-1.37-1.72-.91-3.08-2.25-4.02-3.98-.94-1.72-1.42-3.83-1.42-6.27s.48-4.63,1.42-6.37c.94-1.75,2.29-3.11,4.02-4.03,1.72-.92,3.74-1.38,6.01-1.38s4.33.46,6.05,1.38c1.72.92,3.08,2.27,4.04,4.03.95,1.75,1.44,3.89,1.44,6.37s-.48,4.55-1.44,6.27c-.96,1.73-2.32,3.07-4.04,3.98-1.71.91-3.75,1.37-6.05,1.37ZM477.64,27.11c-1.22,0-2.18.29-2.87.87-.69.59-1.19,1.38-1.48,2.37-.29,1.01-.44,2.16-.44,3.4s.15,2.34.44,3.33c.29.98.78,1.76,1.47,2.34.68.57,1.65.86,2.87.86s2.24-.29,2.94-.86c.71-.58,1.21-1.37,1.51-2.34.3-1,.46-2.12.46-3.33s-.15-2.38-.46-3.4c-.29-.99-.8-1.79-1.51-2.38-.7-.58-1.69-.87-2.94-.87Z"/>
          <path d="M477.64,22.23c2.27,0,4.25.45,5.93,1.35,1.69.9,3,2.21,3.94,3.93.94,1.72,1.41,3.8,1.41,6.25s-.47,4.45-1.41,6.15c-.94,1.69-2.25,2.99-3.94,3.88-1.69.89-3.67,1.34-5.93,1.34s-4.2-.45-5.89-1.34c-1.69-.89-2.99-2.19-3.91-3.88-.92-1.69-1.38-3.74-1.38-6.15s.46-4.53,1.38-6.25c.92-1.72,2.23-3.03,3.91-3.93,1.69-.9,3.65-1.35,5.89-1.35M477.64,40.54c1.32,0,2.35-.31,3.1-.92.75-.61,1.28-1.43,1.59-2.46.31-1.03.47-2.16.47-3.4s-.16-2.43-.47-3.47c-.31-1.04-.84-1.88-1.59-2.5-.75-.62-1.78-.93-3.1-.93s-2.3.31-3.03.93c-.73.62-1.25,1.45-1.55,2.5-.3,1.04-.45,2.2-.45,3.47s.15,2.38.45,3.4c.3,1.03.82,1.85,1.55,2.46.73.61,1.74.92,3.03.92M477.64,21.73c-2.31,0-4.37.47-6.12,1.41-1.77.94-3.15,2.33-4.12,4.13-.96,1.78-1.44,3.96-1.44,6.49s.49,4.63,1.45,6.39c.97,1.77,2.35,3.15,4.12,4.08,1.75.93,3.81,1.4,6.12,1.4s4.42-.47,6.17-1.4c1.76-.93,3.16-2.31,4.14-4.08.98-1.76,1.47-3.91,1.47-6.39s-.49-4.71-1.47-6.49c-.98-1.8-2.37-3.19-4.14-4.13-1.75-.93-3.83-1.41-6.17-1.41h0ZM477.64,40.04c-1.16,0-2.07-.27-2.71-.8-.65-.55-1.12-1.29-1.39-2.22-.29-.98-.43-2.07-.43-3.26s.15-2.34.43-3.33c.27-.94.74-1.7,1.4-2.25.64-.54,1.55-.81,2.71-.81s2.13.27,2.78.82c.67.55,1.15,1.31,1.43,2.25.29.99.44,2.11.44,3.33s-.15,2.28-.44,3.26c-.28.93-.76,1.67-1.43,2.22-.65.53-1.59.81-2.78.81h0Z"/>
        </g>
        <g>
          <path class="st19" d="M506.81,45.01v-13.89c0-.77-.11-1.45-.32-2.02-.21-.55-.54-.99-.98-1.29-.45-.3-1.05-.46-1.8-.46-1.14,0-2.13.27-2.94.8-.8.53-1.52,1.17-2.12,1.92v14.94h-6.51v-22.65h6.28l.1,2.9c.69-.77,1.56-1.47,2.57-2.08,1.25-.75,2.88-1.14,4.85-1.14,2.32,0,4.14.72,5.43,2.14,1.28,1.41,1.93,3.49,1.93,6.17v14.66h-6.47Z"/>
          <path d="M505.92,22.3c2.25,0,4,.68,5.24,2.05,1.24,1.37,1.86,3.37,1.86,6v14.41h-5.97v-13.64c0-.8-.11-1.51-.34-2.11-.23-.6-.59-1.07-1.08-1.41-.49-.33-1.14-.5-1.94-.5-1.2,0-2.22.28-3.08.84-.85.56-1.6,1.24-2.24,2.04v14.77h-6.01v-22.15h5.79l.11,3.31c.74-.95,1.72-1.8,2.93-2.53,1.21-.73,2.78-1.1,4.72-1.1M505.92,21.8c-2.02,0-3.69.39-4.98,1.17-.84.51-1.58,1.08-2.21,1.7l-.07-2.07-.02-.48h-6.77v23.15h7.01v-15.1c.58-.7,1.25-1.3,2.01-1.8.77-.5,1.71-.76,2.8-.76.7,0,1.25.14,1.66.41.41.28.7.66.89,1.17.2.55.31,1.2.31,1.94v14.14h6.97v-14.91c0-2.75-.67-4.88-1.99-6.34-1.33-1.47-3.22-2.22-5.61-2.22h0Z"/>
        </g>
      </g>
    </g>
  </g>
</svg>